<svg width="16" height="16" viewBox="0 0 16 16" fill="none" xmlns="http://www.w3.org/2000/svg">
<path fill-rule="evenodd" clip-rule="evenodd" d="M6 2.99988C6 2.44759 6.44772 1.99988 7 1.99988H9C9.55229 1.99988 10 2.44759 10 2.99988H6ZM4 2.99988C4 1.34302 5.34315 -0.00012207 7 -0.00012207H9C10.6569 -0.00012207 12 1.34302 12 2.99988H14L15 2.99988C15.5523 2.99988 16 3.44759 16 3.99988C16 4.55216 15.5523 4.99988 15 4.99988L14 4.99988V12.9999C14 14.6567 12.6569 15.9999 11 15.9999H5C3.34315 15.9999 2 14.6567 2 12.9999V4.99988H1C0.447715 4.99988 0 4.55216 0 3.99988C0 3.44759 0.447715 2.99988 1 2.99988H2H4ZM4 4.99988V12.9999C4 13.5522 4.44772 13.9999 5 13.9999H11C11.5523 13.9999 12 13.5522 12 12.9999V4.99988H10H6H4ZM6 7.66663C6.55228 7.66663 7 8.11434 7 8.66663L7 12C7 12.5522 6.55228 13 6 13C5.44771 13 5 12.5522 5 12L5 8.66663C5 8.11434 5.44772 7.66663 6 7.66663ZM11 8.66663C11 8.11434 10.5523 7.66663 10 7.66663C9.44771 7.66663 9 8.11434 9 8.66663V12C9 12.5522 9.44771 13 10 13C10.5523 13 11 12.5522 11 12V8.66663Z" fill="#101326"/>
</svg>
