<svg width="72" height="72" viewBox="0 0 72 72" fill="none" xmlns="http://www.w3.org/2000/svg">
<path d="M36 0L39.9471 6.01871L45.3175 1.22667L47.5723 8.06188L54 4.82309L54.4089 12.009L61.4558 10.5442L59.991 17.5911L67.1769 18L63.9381 24.4277L70.7733 26.6825L65.9813 32.0529L72 36L65.9813 39.9471L70.7733 45.3175L63.9381 47.5723L67.1769 54L59.991 54.4089L61.4558 61.4558L54.4089 59.991L54 67.1769L47.5723 63.9381L45.3175 70.7733L39.9471 65.9813L36 72L32.0529 65.9813L26.6825 70.7733L24.4277 63.9381L18 67.1769L17.5911 59.991L10.5442 61.4558L12.009 54.4089L4.82309 54L8.06188 47.5723L1.22667 45.3175L6.01871 39.9471L0 36L6.01871 32.0529L1.22667 26.6825L8.06188 24.4277L4.82309 18L12.009 17.5911L10.5442 10.5442L17.5911 12.009L18 4.82309L24.4277 8.06188L26.6825 1.22667L32.0529 6.01871L36 0Z" fill="#F85631"/>
<path d="M24.7381 32.766C23.4601 32.766 22.5421 33.234 21.9481 34.152V33H20.0041V42H21.9481V37.176C21.9481 35.43 22.8661 34.584 24.2341 34.584C25.4761 34.584 26.2501 35.322 26.2501 36.672V42H28.1941V36.474C28.1941 34.17 26.8081 32.766 24.7381 32.766ZM38.9813 38.328C39.0353 37.986 39.0533 37.716 39.0533 37.518C39.0533 36.204 38.6213 35.07 37.7753 34.152C36.9293 33.234 35.8493 32.766 34.5353 32.766C33.1493 32.766 31.9973 33.216 31.1153 34.134C30.2333 35.034 29.7833 36.15 29.7833 37.5C29.7833 38.868 30.2333 40.002 31.1333 40.902C32.0333 41.784 33.2213 42.234 34.6793 42.234C36.4253 42.234 37.7393 41.586 38.6213 40.272L37.0193 39.336C36.4973 40.074 35.7233 40.452 34.6973 40.452C33.2033 40.452 32.1053 39.696 31.8173 38.328H38.9813ZM31.7993 36.744C32.0693 35.376 33.0773 34.53 34.5173 34.53C35.7953 34.53 36.8213 35.286 37.0913 36.744H31.7993ZM49.0163 39.21L47.1443 33H45.2903L43.4003 39.21L41.6543 33H39.6023L42.4283 42H44.3363L46.2263 35.934L48.0983 42H50.0063L52.8323 33H50.7803L49.0163 39.21Z" fill="white"/>
</svg>
