<svg width="72" height="72" fill="none" xmlns="http://www.w3.org/2000/svg"><path d="M36 0l3.947 6.019 5.37-4.792 2.255 6.835L54 4.823l.409 7.186 7.047-1.465-1.465 7.047 7.186.409-3.239 6.428 6.835 2.255-4.792 5.37L72 36l-6.019 3.947 4.792 5.37-6.835 2.255L67.177 54l-7.186.409 1.465 7.047-7.047-1.465L54 67.177l-6.428-3.239-2.255 6.835-5.37-4.792L36 72l-3.947-6.019-5.37 4.792-2.255-6.835L18 67.177l-.409-7.186-7.047 1.465 1.465-7.047L4.823 54l3.239-6.428-6.835-2.255 4.792-5.37L0 36l6.019-3.947-4.792-5.37 6.835-2.255L4.823 18l7.186-.409-1.465-7.047 7.047 1.465L18 4.823l6.428 3.239 2.255-6.835 5.37 4.792L36 0z" fill="#F85631"/><path d="M24.738 32.766c-1.278 0-2.196.468-2.79 1.386V33h-1.944v9h1.944v-4.824c0-1.746.918-2.592 2.286-2.592 1.242 0 2.016.738 2.016 2.088V42h1.944v-5.526c0-2.304-1.386-3.708-3.456-3.708zm14.243 5.562c.054-.342.072-.612.072-.81 0-1.314-.432-2.448-1.278-3.366-.846-.918-1.926-1.386-3.24-1.386-1.386 0-2.538.45-3.42 1.368-.882.9-1.332 2.016-1.332 3.366 0 1.368.45 2.502 1.35 3.402.9.882 2.088 1.332 3.546 1.332 1.746 0 3.06-.648 3.942-1.962l-1.602-.936c-.522.738-1.296 1.116-2.322 1.116-1.494 0-2.592-.756-2.88-2.124h7.164zM31.8 36.744c.27-1.368 1.278-2.214 2.718-2.214 1.278 0 2.304.756 2.574 2.214H31.8zm17.217 2.466L47.144 33H45.29l-1.89 6.21L41.654 33h-2.052l2.826 9h1.908l1.89-6.066L48.098 42h1.908l2.826-9H50.78l-1.764 6.21z" fill="#fff"/></svg>