<svg width="40" height="40" fill="none" xmlns="http://www.w3.org/2000/svg"><circle cx="20" cy="20" r="19.5" stroke="#101326"/><path d="M20.946 23.032l-2.723-5.297c.262-.095.503-.173.735-.27.135-.056.263-.134.383-.217.637-.44.822-.93.63-1.673-.188-.724-.56-1.363-.963-1.985-.103-.157-.214-.309-.323-.461-.08-.112-.185-.147-.325-.121a4.09 4.09 0 00-3.338 3.665c-.087 1.047.087 2.06.436 3.037.647 1.816 1.472 3.55 2.637 5.105.382.51.826.963 1.344 1.34 1.384 1.01 2.843 1.116 4.351.311.386-.205.725-.499 1.084-.753.122-.087.152-.206.106-.342-.276-.82-.599-1.617-1.122-2.317-.542-.723-1.079-.99-2.148-.5-.264.12-.496.308-.764.478z" stroke="#101326" stroke-width="2"/></svg>