<svg width="143" height="18" fill="none" xmlns="http://www.w3.org/2000/svg"><path fill-rule="evenodd" clip-rule="evenodd" d="M20.114 0H0v4.213h26.244C25.574 1.436 23.466 0 20.114 0zm.479 11.202c0 1.34-.67 2.01-2.012 2.01H5.938V6.99H0V18h20.114c4.214 0 6.417-2.202 6.417-6.415V6.99h-5.938v4.213zM28.734 0h23.562v4.213H28.734V0zm6.034 13.596v-2.968h16.57V6.989H28.734v10.915h23.85v-4.308H34.767zm25.19-1.436h-5.65v1.819c0 2.776 1.245 4.021 4.022 4.021h18.198c2.778 0 4.023-1.245 4.023-4.021v-2.777c0-2.776-1.245-3.925-4.023-4.021l-14.941-.67c-.862-.096-1.15-.288-1.15-1.15V4.98c0-.862.288-1.15 1.15-1.15h11.59c.861 0 1.148.288 1.148 1.15v.478h5.747V4.021C80.072 1.245 78.827 0 76.05 0H58.522c-2.778 0-4.023 1.245-4.023 4.021v2.49c0 2.776 1.245 3.925 4.023 4.02l14.941.575c.863.096 1.15.288 1.15 1.15v.67c0 .861-.287 1.149-1.15 1.149H61.108c-.862 0-1.15-.288-1.15-1.15v-.765zM88.884 0H82.85v4.021h6.034V0zM82.85 6.99h6.034V18H82.85V6.99zM112.254 0H91.47v4.021h25.478C116.756 1.245 115.319 0 112.254 0zm4.694 6.99v.095c0 3.255-1.341 4.596-4.598 4.787L117.714 18h-7.279l-4.885-5.745h-8.141V18H91.47V6.99h5.939v1.244h12.259c.958 0 1.341-.287 1.341-1.245h5.939zM142.713 0h-23.562v4.021h23.562V0zm-1.054 6.99v3.638h-16.57v2.968H143v4.308h-23.849V6.99h22.508z" fill="#363A53"/></svg>