<svg width="126" height="16" fill="none" xmlns="http://www.w3.org/2000/svg"><path fill-rule="evenodd" clip-rule="evenodd" d="M17.723 0H0v3.745h23.124C22.534 1.277 20.677 0 17.723 0zm.422 9.957c0 1.192-.591 1.788-1.773 1.788H5.232V6.213H0V16h17.723c3.713 0 5.654-1.957 5.654-5.702V6.213h-5.232v3.744zM25.318 0H46.08v3.745H25.32V0zm5.317 12.085V9.447h14.6V6.213H25.318v9.702h21.014v-3.83H30.635zm22.195-1.277h-4.979v1.617c0 2.469 1.097 3.575 3.545 3.575H67.43c2.447 0 3.544-1.106 3.544-3.575V9.957c0-2.468-1.097-3.489-3.544-3.574l-13.166-.596c-.76-.085-1.013-.255-1.013-1.021v-.34c0-.766.254-1.022 1.013-1.022h10.212c.76 0 1.013.256 1.013 1.022v.425h5.063V3.574C70.553 1.106 69.456 0 67.01 0H51.565c-2.448 0-3.545 1.106-3.545 3.574v2.213c0 2.468 1.097 3.49 3.545 3.575l13.165.51c.76.085 1.013.256 1.013 1.022v.595c0 .766-.253 1.022-1.013 1.022H53.843c-.76 0-1.013-.256-1.013-1.022v-.68zM78.317 0h-5.316v3.574h5.316V0zm-5.316 6.213h5.316V16h-5.316V6.213zM98.909 0H80.596v3.574h22.449C102.876 1.106 101.61 0 98.909 0zm4.136 6.213v.085c0 2.893-1.182 4.085-4.051 4.255L103.72 16h-6.414l-4.304-5.106h-7.173V16h-5.233V6.213h5.233v1.106H96.63c.844 0 1.181-.255 1.181-1.106h5.233zM125.747 0h-20.761v3.574h20.761V0zm-.929 6.213v3.234h-14.6v2.638H126v3.83h-21.014V6.213h19.832z" fill="#101326"/></svg>