<svg width="16" height="126" fill="none" xmlns="http://www.w3.org/2000/svg"><path fill-rule="evenodd" clip-rule="evenodd" d="M0 108.277V126h3.745v-23.124C1.277 103.467 0 105.324 0 108.277zm9.957-.422c1.192 0 1.788.591 1.788 1.773v11.14H6.213V126H16v-17.723c0-3.713-1.957-5.654-5.702-5.654H6.213v5.232h3.744zM0 100.682V79.921h3.745v20.761H0zm12.085-5.317H9.447v-14.6H6.213v19.917h9.702V79.668h-3.83v15.697zM10.808 73.17v4.979h1.617c2.469 0 3.575-1.097 3.575-3.545V58.57c0-2.447-1.106-3.544-3.575-3.544H9.957c-2.468 0-3.489 1.097-3.574 3.544l-.596 13.166c-.085.76-.255 1.013-1.021 1.013h-.34c-.766 0-1.022-.254-1.022-1.013V61.523c0-.76.256-1.013 1.022-1.013h.425v-5.063H3.574C1.106 55.447 0 56.544 0 58.99v15.444c0 2.448 1.106 3.545 3.574 3.545h2.213c2.468 0 3.49-1.097 3.575-3.545l.51-13.165c.085-.76.256-1.013 1.022-1.013h.595c.766 0 1.022.253 1.022 1.013v10.887c0 .76-.256 1.013-1.022 1.013h-.68zM0 47.681V53h3.574v-5.317H0zM6.213 53v-5.317H16V53H6.213zM0 27.09v18.314h3.574V22.955C1.106 23.124 0 24.39 0 27.091zm6.213-4.135h.085c2.893 0 4.085 1.182 4.255 4.051L16 22.28v6.414l-5.106 4.304v7.174H16v5.232H6.213V40.17h1.106v-10.8c0-.844-.255-1.181-1.106-1.181v-5.233zM0 .253v20.761h3.574V.254H0zm6.213.929h3.234v14.6h2.638V0h3.83v21.014H6.213V1.182z" fill="#fff"/></svg>