<svg width="40" height="40" fill="none" xmlns="http://www.w3.org/2000/svg"><circle cx="20" cy="20" r="20" fill="#363A53"/><path fill-rule="evenodd" clip-rule="evenodd" d="M27.815 13.434c.861.24 1.538.943 1.768 1.837.417 1.62.417 5.002.417 5.002s0 3.381-.418 5.001c-.23.895-.907 1.598-1.768 1.837-1.56.434-7.814.434-7.814.434s-6.255 0-7.814-.434c-.86-.24-1.537-.942-1.768-1.837C10 23.654 10 20.273 10 20.273s0-3.382.418-5.002c.23-.894.907-1.597 1.768-1.837C13.746 13 20 13 20 13s6.255 0 7.815.434zm-4.617 6.839L18 23.389v-6.232l5.198 3.116z" fill="#EFEEEE"/></svg>