<svg width="24" height="24" viewBox="0 0 24 24" fill="none" xmlns="http://www.w3.org/2000/svg">
<path fill-rule="evenodd" clip-rule="evenodd" d="M1 0C0.447715 0 0 0.447715 0 1C0 1.55228 0.447715 2 1 2H4.23172L8.03376 16.2577L8.29603 17.2411L9.27472 16.9615L23.2747 12.9615L24 12.7543V12V6V5H23H7.10161L5.96624 0.742337L5.76828 0H5H1ZM9.70397 14.7588L7.63495 7H22V11.2457L9.70397 14.7588ZM8 22C8.55228 22 9 21.5523 9 21C9 20.4477 8.55228 20 8 20C7.44772 20 7 20.4477 7 21C7 21.5523 7.44772 22 8 22ZM8 24C9.65685 24 11 22.6569 11 21C11 19.3431 9.65685 18 8 18C6.34315 18 5 19.3431 5 21C5 22.6569 6.34315 24 8 24ZM19 22C19.5523 22 20 21.5523 20 21C20 20.4477 19.5523 20 19 20C18.4477 20 18 20.4477 18 21C18 21.5523 18.4477 22 19 22ZM19 24C20.6569 24 22 22.6569 22 21C22 19.3431 20.6569 18 19 18C17.3431 18 16 19.3431 16 21C16 22.6569 17.3431 24 19 24Z" fill="white"/>
</svg>
