<svg width="143" height="18" viewBox="0 0 143 18" fill="none" xmlns="http://www.w3.org/2000/svg">
<path fill-rule="evenodd" clip-rule="evenodd" d="M20.1139 0H0V4.21277H26.2438C25.5733 1.43617 23.4662 0 20.1139 0ZM20.5928 11.2021C20.5928 12.5425 19.9223 13.2128 18.5814 13.2128H5.93838V6.98935H0V18H20.1139C24.3282 18 26.5311 15.7979 26.5311 11.5851V6.98935H20.5928V11.2021ZM28.7341 0H52.296V4.21277H28.7341V0ZM34.7682 13.5957V10.6277H51.3382V6.98935H28.7341V17.9043H52.5834V13.5957H34.7682ZM59.9584 12.1596H54.3074V13.9787C54.3074 16.7553 55.5525 18 58.3302 18H76.5284C79.306 18 80.5512 16.7553 80.5512 13.9787V11.2021C80.5512 8.42554 79.306 7.2766 76.5284 7.18086L61.5867 6.51064C60.7247 6.4149 60.4373 6.22341 60.4373 5.36171V4.97873C60.4373 4.11702 60.7247 3.82979 61.5867 3.82979H73.1761C74.0381 3.82979 74.3255 4.11702 74.3255 4.97873V5.45745H80.0723V4.02128C80.0723 1.24468 78.8271 0 76.0495 0H58.5217C55.7441 0 54.499 1.24468 54.499 4.02128V6.51064C54.499 9.28724 55.7441 10.4362 58.5217 10.5319L73.4634 11.1064C74.3255 11.2021 74.6128 11.3936 74.6128 12.2553V12.9255C74.6128 13.7872 74.3255 14.0745 73.4634 14.0745H61.1078C60.2458 14.0745 59.9584 13.7872 59.9584 12.9255V12.1596ZM88.8841 0H82.8499V4.02128H88.8841V0ZM82.8499 6.98935H88.8841V18H82.8499V6.98935ZM112.254 0H91.4702V4.02128H116.948C116.756 1.24468 115.319 0 112.254 0ZM116.948 6.98935V7.0851C116.948 10.3404 115.607 11.6808 112.35 11.8723L117.714 18H110.435L105.55 12.2553H97.4085V18H91.4702V6.98935H97.4085V8.23403H109.668C110.626 8.23403 111.009 7.9468 111.009 6.98935H116.948ZM142.713 0H119.151V4.02128H142.713V0ZM141.659 6.98935V10.6277H125.089V13.5957H143V17.9043H119.151V6.98935H141.659Z" fill="#363A53"/>
</svg>
