<svg width="40" height="40" viewBox="0 0 40 40" fill="none" xmlns="http://www.w3.org/2000/svg">
<circle cx="20" cy="20" r="19.5" stroke="#101326"/>
<path d="M20.9463 23.0317C20.0406 21.2699 19.1309 19.5004 18.2234 17.735C18.4855 17.6398 18.7257 17.5618 18.9581 17.4651C19.0927 17.4089 19.2205 17.3312 19.341 17.2479C19.9779 16.8083 20.1635 16.3187 19.9704 15.575C19.7827 14.851 19.4115 14.2121 19.0076 13.5904C18.9053 13.4329 18.7944 13.2811 18.6849 13.1286C18.6052 13.0172 18.4997 12.9824 18.3605 13.008C16.5401 13.3461 15.1735 14.8535 15.0223 16.6726C14.9351 17.7203 15.1087 18.7321 15.4576 19.7098C16.1055 21.5265 16.9298 23.2591 18.0948 24.8147C18.4767 25.3243 18.9212 25.7776 19.4387 26.1551C20.8227 27.1645 22.2817 27.271 23.7904 26.4665C24.1761 26.2609 24.5148 25.9674 24.874 25.7126C24.9955 25.6265 25.0256 25.507 24.9795 25.3707C24.7039 24.5518 24.3812 23.7536 23.8577 23.0542C23.3161 22.331 22.7794 22.0649 21.7104 22.5538C21.4465 22.6743 21.2141 22.862 20.9463 23.0317Z" stroke="#101326" stroke-width="2"/>
</svg>
