<svg width="126" height="16" viewBox="0 0 126 16" fill="none" xmlns="http://www.w3.org/2000/svg">
<path fill-rule="evenodd" clip-rule="evenodd" d="M17.7227 0H0V3.74468H23.1239C22.5331 1.2766 20.6765 0 17.7227 0ZM18.1447 9.95743C18.1447 11.1489 17.5539 11.7447 16.3724 11.7447H5.23242V6.21275H0V16H17.7227C21.436 16 23.3771 14.0425 23.3771 10.2979V6.21275H18.1447V9.95743ZM25.3181 0H46.079V3.74468H25.3181V0ZM30.635 12.0851V9.4468H45.2351V6.21275H25.3181V15.9149H46.3322V12.0851H30.635ZM52.8305 10.8085H47.8513V12.4255C47.8513 14.8936 48.9484 16 51.3958 16H67.4306C69.8781 16 70.9752 14.8936 70.9752 12.4255V9.95745C70.9752 7.48937 69.8781 6.46809 67.4306 6.38298L54.2652 5.78724C53.5057 5.70213 53.2525 5.53192 53.2525 4.76596V4.42553C53.2525 3.65958 53.5057 3.40426 54.2652 3.40426H64.4769C65.2364 3.40426 65.4896 3.65958 65.4896 4.42553V4.85107H70.5532V3.57447C70.5532 1.10638 69.4561 0 67.0087 0H51.5646C49.1172 0 48.0201 1.10638 48.0201 3.57447V5.78724C48.0201 8.25532 49.1172 9.2766 51.5646 9.36171L64.73 9.87235C65.4896 9.95745 65.7428 10.1277 65.7428 10.8936V11.4894C65.7428 12.2553 65.4896 12.5106 64.73 12.5106H53.8432C53.0837 12.5106 52.8305 12.2553 52.8305 11.4894V10.8085ZM78.3175 0H73.0006V3.57447H78.3175V0ZM73.0006 6.21275H78.3175V16H73.0006V6.21275ZM98.9095 0H80.5961V3.57447H103.045C102.876 1.10638 101.61 0 98.9095 0ZM103.045 6.21275V6.29786C103.045 9.19148 101.863 10.383 98.9939 10.5532L103.72 16H97.3061L93.002 10.8936H85.8285V16H80.5961V6.21275H85.8285V7.31913H96.6309C97.4748 7.31913 97.8124 7.06381 97.8124 6.21275H103.045ZM125.747 0H104.986V3.57447H125.747V0ZM124.818 6.21275V9.4468H110.218V12.0851H126V15.9149H104.986V6.21275H124.818Z" fill="white"/>
</svg>
