<svg width="18" height="18" viewBox="0 0 18 18" fill="none" xmlns="http://www.w3.org/2000/svg">
<path fill-rule="evenodd" clip-rule="evenodd" d="M17.7072 1.7071C18.0977 1.31657 18.0977 0.683409 17.7072 0.292888C17.3166 -0.0976334 16.6835 -0.0976287 16.293 0.292899L9.00001 7.58596L1.70711 0.293062C1.31658 -0.0974628 0.683417 -0.0974628 0.292893 0.293062C-0.0976311 0.683586 -0.0976311 1.31675 0.292893 1.70728L7.58581 9.00019L0.29296 16.2931C-0.0975616 16.6837 -0.0975578 17.3168 0.29297 17.7074C0.683498 18.0979 1.31666 18.0979 1.70718 17.7073L9.00002 10.4144L16.2929 17.7073C16.6834 18.0978 17.3166 18.0978 17.7071 17.7073C18.0976 17.3167 18.0976 16.6836 17.7071 16.2931L10.4142 9.00018L17.7072 1.7071Z" fill="white"/>
</svg>
