<svg width="16" height="126" viewBox="0 0 16 126" fill="none" xmlns="http://www.w3.org/2000/svg">
<path fill-rule="evenodd" clip-rule="evenodd" d="M-7.74682e-07 108.277L0 126L3.74468 126L3.74468 102.876C1.2766 103.467 -9.03796e-07 105.324 -7.74682e-07 108.277ZM9.95743 107.855C11.1489 107.855 11.7447 108.446 11.7447 109.628L11.7447 120.768L6.21275 120.768L6.21275 126L16 126L16 108.277C16 104.564 14.0425 102.623 10.2979 102.623L6.21275 102.623L6.21275 107.855L9.95743 107.855ZM-1.10669e-06 100.682L-2.01418e-06 79.921L3.74468 79.921L3.74468 100.682L-1.10669e-06 100.682ZM12.0851 95.365L9.44679 95.365L9.44679 80.7649L6.21275 80.7649L6.21275 100.682L15.9149 100.682L15.9149 79.6678L12.0851 79.6678L12.0851 95.365ZM10.8085 73.1695L10.8085 78.1487L12.4255 78.1487C14.8936 78.1487 16 77.0516 16 74.6042L16 58.5694C16 56.1219 14.8936 55.0248 12.4255 55.0248L9.95745 55.0248C7.48936 55.0248 6.46809 56.1219 6.38298 58.5694L5.78724 71.7348C5.70213 72.4943 5.53192 72.7475 4.76596 72.7475L4.42553 72.7475C3.65957 72.7475 3.40426 72.4943 3.40426 71.7348L3.40425 61.5231C3.40425 60.7636 3.65957 60.5104 4.42553 60.5104L4.85106 60.5104L4.85106 55.4468L3.57447 55.4468C1.10638 55.4468 -3.03602e-06 56.5439 -2.92904e-06 58.9913L-2.25396e-06 74.4354C-2.14698e-06 76.8828 1.10638 77.9799 3.57447 77.9799L5.78724 77.9799C8.25532 77.9799 9.2766 76.8828 9.36171 74.4354L9.87234 61.27C9.95745 60.5104 10.1277 60.2572 10.8936 60.2572L11.4894 60.2572C12.2553 60.2572 12.5106 60.5104 12.5106 61.27L12.5106 72.1568C12.5106 72.9163 12.2553 73.1695 11.4894 73.1695L10.8085 73.1695ZM-3.42336e-06 47.6825L-3.19096e-06 52.9994L3.57447 52.9994L3.57447 47.6825L-3.42336e-06 47.6825ZM6.21275 52.9994L6.21275 47.6825L16 47.6825L16 52.9994L6.21275 52.9994ZM-4.32347e-06 27.0905L-3.52296e-06 45.4039L3.57447 45.4039L3.57447 22.9552C1.10638 23.1239 -4.44152e-06 24.3899 -4.32347e-06 27.0905ZM6.21275 22.9552L6.29785 22.9552C9.19147 22.9552 10.383 24.1367 10.5532 27.0061L16 22.28L16 28.6939L10.8936 32.998L10.8936 40.1715L16 40.1715L16 45.4039L6.21275 45.4039L6.21275 40.1715L7.31913 40.1715L7.31913 29.3691C7.31913 28.5252 7.06381 28.1876 6.21275 28.1876L6.21275 22.9552ZM-5.49657e-06 0.253197L-4.58908e-06 21.0141L3.57447 21.0141L3.57446 0.253197L-5.49657e-06 0.253197ZM6.21274 1.18153L9.44679 1.18153L9.44679 15.7817L12.0851 15.7817L12.0851 1.47305e-05L15.9149 1.45631e-05L15.9149 21.0141L6.21275 21.0141L6.21274 1.18153Z" fill="white"/>
</svg>
