<svg width="6" height="8" viewBox="0 0 6 8" fill="none" xmlns="http://www.w3.org/2000/svg">
<path d="M3.86703 7.16667C3.86703 7.62667 3.49503 8 3.03403 8C2.5747 8 2.20103 7.62667 2.20103 7.16667C2.20103 6.70667 2.5747 6.33333 3.03403 6.33333C3.49503 6.33333 3.86703 6.70633 3.86703 7.16667ZM3.06036 0C1.71736 0 0.707031 0.897667 0.707031 2.66667H2.02536C2.02536 1.89867 2.32736 1.27033 3.03336 1.27033C3.44903 1.27033 3.89003 1.54633 3.92803 2.074C3.96903 2.62933 3.67236 2.911 3.29736 3.268C2.3227 4.19467 2.3587 4.61767 2.3587 5.66667H3.67303C3.67303 5.18267 3.6207 4.83067 4.2857 4.11367C4.72936 3.635 5.28103 3.03967 5.2927 2.13267C5.30836 0.811667 4.3757 0 3.06036 0V0Z" fill="white"/>
</svg>
