<svg width="40" height="40" viewBox="0 0 40 40" fill="none" xmlns="http://www.w3.org/2000/svg">
<circle cx="20" cy="20" r="20" fill="#363A53"/>
<path fill-rule="evenodd" clip-rule="evenodd" d="M27.8153 13.4344C28.6763 13.6739 29.353 14.3769 29.5835 15.2714C30 16.8912 30 20.2727 30 20.2727C30 20.2727 30 23.6542 29.5818 25.274C29.3513 26.1686 28.6747 26.8715 27.8136 27.111C26.2545 27.5455 20 27.5455 20 27.5455C20 27.5455 13.7455 27.5455 12.1864 27.111C11.3253 26.8715 10.6487 26.1686 10.4182 25.274C10 23.6542 10 20.2727 10 20.2727C10 20.2727 10 16.8912 10.4182 15.2714C10.6487 14.3769 11.3253 13.6739 12.1864 13.4344C13.7455 13 20 13 20 13C20 13 26.2545 13 27.8153 13.4344ZM23.1976 20.273L18 23.3894V17.1566L23.1976 20.273Z" fill="#EFEEEE"/>
</svg>
