<svg width="32" height="24" viewBox="0 0 32 24" fill="none" xmlns="http://www.w3.org/2000/svg">
<path fill-rule="evenodd" clip-rule="evenodd" d="M28.5044 0.716839C29.8821 1.11195 30.9648 2.27187 31.3335 3.74788C32 6.42051 32 12 32 12C32 12 32 17.5795 31.3309 20.2521C30.9621 21.7281 29.8795 22.8881 28.5018 23.2832C26.0072 24 16 24 16 24C16 24 5.99275 24 3.49819 23.2832C2.12051 22.8881 1.03787 21.7281 0.669081 20.2521C0 17.5795 0 12 0 12C0 12 0 6.42051 0.669081 3.74788C1.03787 2.27187 2.12051 1.11195 3.49819 0.716839C5.99275 0 16 0 16 0C16 0 26.0072 0 28.5044 0.716839ZM21.1161 12.0004L12.8 17.1424V6.85834L21.1161 12.0004Z" fill="#363A53"/>
</svg>
