<svg width="28" height="28" viewBox="0 0 28 28" fill="none" xmlns="http://www.w3.org/2000/svg">
<path fill-rule="evenodd" clip-rule="evenodd" d="M8 0C3.58172 0 0 3.58172 0 8V20C0 24.4183 3.58172 28 8 28H20C24.4183 28 28 24.4183 28 20V8C28 3.58172 24.4183 0 20 0H8ZM23.3326 6.69539C23.3326 7.70988 22.521 8.31858 21.7095 8.31858C20.8979 8.31858 20.0863 7.50699 20.0863 6.69539C20.0863 5.6809 20.8979 5.0722 21.7095 5.0722C22.521 5.0722 23.3326 5.6809 23.3326 6.69539ZM13.9989 18.869C11.3612 18.869 9.33225 16.84 9.33225 14.2023C9.33225 11.5647 11.3612 9.53568 13.9989 9.53568C16.6366 9.53568 18.6656 11.5647 18.6656 14.2023C18.6656 16.84 16.6366 18.869 13.9989 18.869ZM13.9989 6.89799C9.94095 6.89799 6.69458 10.1444 6.69458 14.2023C6.69458 18.2603 9.94095 21.5067 13.9989 21.5067C18.0569 21.5067 21.3033 18.2603 21.3033 14.2023C21.3033 10.1444 18.0569 6.89799 13.9989 6.89799Z" fill="#363A53"/>
</svg>
