<svg width="28" height="28" fill="none" xmlns="http://www.w3.org/2000/svg"><path fill-rule="evenodd" clip-rule="evenodd" d="M8 0a8 8 0 00-8 8v12a8 8 0 008 8h12a8 8 0 008-8V8a8 8 0 00-8-8H8zm15.333 6.695c0 1.015-.812 1.624-1.623 1.624-.812 0-1.624-.812-1.624-1.624 0-1.014.812-1.623 1.623-1.623.812 0 1.624.609 1.624 1.623zM13.999 18.87c-2.638 0-4.667-2.029-4.667-4.667 0-2.637 2.03-4.666 4.667-4.666 2.638 0 4.667 2.029 4.667 4.666 0 2.638-2.03 4.667-4.667 4.667zm0-11.971a7.274 7.274 0 00-7.304 7.304 7.274 7.274 0 007.304 7.305 7.274 7.274 0 007.304-7.305A7.274 7.274 0 0014 6.898z" fill="#363A53"/></svg>