<svg width="32" height="32" viewBox="0 0 32 32" fill="none" xmlns="http://www.w3.org/2000/svg">
<path fill-rule="evenodd" clip-rule="evenodd" d="M5 4C4.44772 4 4 4.44772 4 5C4 5.55228 4.44772 6 5 6H8.23172L12.0338 20.2577L12.296 21.2411L13.2747 20.9615L27.2747 16.9615L28 16.7543V16V10V9H27H11.1016L9.96624 4.74234L9.76828 4H9H5ZM13.704 18.7588L11.6349 11H26V15.2457L13.704 18.7588ZM12 26C12.5523 26 13 25.5523 13 25C13 24.4477 12.5523 24 12 24C11.4477 24 11 24.4477 11 25C11 25.5523 11.4477 26 12 26ZM12 28C13.6569 28 15 26.6569 15 25C15 23.3431 13.6569 22 12 22C10.3431 22 9 23.3431 9 25C9 26.6569 10.3431 28 12 28ZM23 26C23.5523 26 24 25.5523 24 25C24 24.4477 23.5523 24 23 24C22.4477 24 22 24.4477 22 25C22 25.5523 22.4477 26 23 26ZM23 28C24.6569 28 26 26.6569 26 25C26 23.3431 24.6569 22 23 22C21.3431 22 20 23.3431 20 25C20 26.6569 21.3431 28 23 28Z" fill="#101326"/>
</svg>
